PathFileType	4	(X/Y/Z)	D:\TRACE\spotREDO_2-26-24\spot_justBody_Motion_1_1-v60.trc
DataRate	CameraRate	NumFrames	NumMarkers	Units	OrigDataRate	OrigDataStartFrame	OrigNumFrames
100.00	100.00	      24	9	mm	100.00	1	      7000
Frame#	Time	front left toe			Front right toe			aft left toe			aft right toe			Arm			FL body			FR body			AL Body			AR Body			
		X1	Y1	Z1	X2	Y2	Z2	X3	Y3	Z3	X4	Y4	Z4	X5	Y5	Z5	X6	Y6	Z6	X7	Y7	Z7	X8	Y8	Z8	X9	Y9	Z9	

1	0.000	-277.09665	26.40488	-113.03947	195.34492	33.67599	-214.46745	-136.24551	35.08968	388.80048	139.25897	191.23050	349.57095	-63.45449	595.60858	-322.56076	-136.20668	339.11996	-260.86307	17.06676	343.69641	-290.21738	19.17325	430.29199	604.52454	165.47913	431.30151	578.86871	
2	0.010	-277.19769	26.33088	-113.22670	195.46761	33.49767	-214.69855	-136.73149	35.51367	388.26233	140.66501	191.39600	349.31677	-63.65270	595.61731	-323.04883	-136.26222	339.01675	-261.15152	16.65676	343.91873	-291.17404	19.74733	430.34143	603.95392	165.91844	431.30066	578.11511	
3	0.020	-277.45367	26.48081	-113.83219	195.57587	33.44243	-215.18639	-136.54039	35.44999	388.16809	140.45541	191.15031	348.43344	-63.68734	595.50085	-323.44849	-136.21088	338.74017	-261.42099	16.66078	343.85229	-291.66898	20.31856	430.26688	603.27844	166.37955	431.33817	577.57330	
4	0.030	-277.42764	26.39464	-114.23017	195.86505	33.47106	-216.07944	-135.45476	35.47683	387.56802	140.36481	190.82365	347.68668	-63.80154	595.31354	-323.91760	-137.02429	339.12888	-262.89651	16.56089	343.79181	-292.29169	20.76165	430.15182	602.84253	166.80237	431.17557	576.92517	
5	0.040	-277.48099	26.48184	-114.55824	196.07271	33.61128	-216.34854	-135.26535	35.62494	387.19824	142.48421	191.38150	347.57501	-63.61759	595.15509	-324.32806	-136.32352	338.63739	-262.57629	16.94352	343.40280	-292.21912	21.29933	430.03772	602.49310	167.32266	431.12469	576.34802	
6	0.050	-277.56927	26.60400	-115.03090	196.02452	33.60398	-216.90224	-134.65887	35.44712	387.01059	141.81744	190.73227	346.71786	-63.93262	595.19702	-324.88605	-136.30247	338.58575	-263.01413	16.94407	343.41989	-292.74719	21.92173	429.64352	601.62866	168.19618	431.17252	576.25336	
7	0.060	-277.44632	26.55359	-115.17911	196.37085	33.31477	-217.91217	-134.53204	35.86356	386.69415	142.07190	190.78299	346.18475	-64.09808	595.25134	-325.39310	-136.27557	338.54211	-263.32632	16.74868	343.70438	-293.67844	22.42668	429.46661	601.07251	168.13855	431.09198	575.25092	
8	0.070	-277.37476	26.45158	-115.11659	196.63434	33.90313	-218.39404	-134.15968	35.85250	386.47760	143.72887	191.13579	345.74918	-64.01085	595.31769	-325.66431	-136.08377	338.52490	-263.67886	16.71880	343.83749	-294.21469	22.62605	429.43408	600.66632	168.60828	431.03091	574.52789	
9	0.080	-277.37744	26.48774	-115.36274	196.95541	34.23669	-218.97839	-133.48015	35.63873	386.32080	143.09172	190.70618	344.89157	-64.01833	595.43341	-326.05408	-135.99966	338.50861	-264.23227	16.93973	343.58447	-294.33179	22.97271	429.37296	600.15375	169.09331	430.97278	574.06079	
10	0.090	-277.44583	26.80553	-116.21494	196.98540	34.34184	-219.48434	-132.96976	35.40923	386.07043	143.12236	190.51161	344.54382	-64.05091	595.46686	-326.60809	-136.67110	339.05219	-265.37543	17.08846	343.69907	-294.81500	23.64251	429.31732	599.55603	169.27266	431.10040	573.48846	
11	0.100	-277.48941	26.94817	-116.70197	197.45047	34.64212	-220.04745	-132.64996	35.33847	385.74762	144.76900	191.01796	344.03189	-64.08757	595.52765	-327.10635	-136.23709	338.80670	-265.73401	17.21503	343.76346	-295.31766	23.97591	429.23624	599.11322	169.77914	431.00015	572.84326	
12	0.110	-277.29666	26.78311	-117.01537	198.00528	35.10462	-220.67599	-132.79247	35.54615	385.31677	145.24554	190.84862	343.24524	-64.42372	595.64832	-327.51535	-135.79279	338.60870	-265.68289	17.21287	344.22302	-296.22357	24.34738	429.42999	598.88538	170.31625	430.92194	572.30585	
13	0.120	-277.10898	26.73704	-117.15543	198.45293	35.76674	-221.25284	-133.12587	36.14972	384.88657	144.70702	190.36786	342.78195	-64.52862	595.81958	-327.92163	-135.76469	338.67484	-266.18408	17.00059	344.47589	-296.81503	24.65025	429.16293	598.34064	170.73277	430.73700	571.76654	
14	0.130	-276.37234	26.80125	-117.96104	198.61560	36.36274	-221.92883	-132.99207	36.75586	384.58533	146.84793	190.80380	342.44595	-64.47759	595.98895	-328.31378	-135.64368	338.64911	-266.51529	17.13261	344.34525	-297.32083	25.02325	428.80423	597.88397	170.86557	430.47382	571.39856	
15	0.140	-276.24091	26.68219	-118.89072	198.70370	37.25283	-222.93791	-132.52681	37.22739	384.08173	146.14682	190.40681	341.33484	-64.39723	596.04816	-328.59262	-135.47008	338.64392	-266.76340	17.33252	344.49121	-297.95108	25.45828	428.56821	597.36224	171.30286	430.25739	570.71570	
16	0.150	-275.86630	26.62407	-119.07978	199.15335	37.91967	-223.45163	-131.80943	36.76755	383.59744	146.69789	190.37756	340.98831	-64.38930	596.09943	-329.09500	-135.24309	338.87607	-267.46057	17.57400	344.66330	-298.51770	25.53328	428.39032	596.81244	171.47131	430.12842	570.12775	
17	0.160	-275.37167	26.74100	-119.53848	200.03616	38.56033	-224.32083	-131.52216	36.08640	383.17798	148.12006	190.40556	340.44559	-64.39900	596.21857	-329.50439	-135.32468	339.09180	-268.51620	17.74866	344.87766	-298.98248	25.44707	428.15680	596.16412	171.46750	429.87012	569.62335	
18	0.170	-275.16397	27.19642	-120.73901	200.45633	38.72248	-224.79053	-131.75278	36.29358	382.66931	147.33200	190.04015	339.60504	-64.38637	596.43518	-329.88559	-134.91435	338.97906	-268.85434	17.69156	345.27628	-299.70398	25.77397	427.77808	595.69232	171.49174	429.73135	569.35272	
19	0.180	-274.64664	27.90098	-121.45848	201.25916	39.48166	-225.54829	-131.50757	36.53376	382.38846	149.45868	190.47551	339.09711	-64.46334	596.77374	-330.38867	-134.59036	339.11905	-269.26791	17.96144	345.62128	-300.39160	26.12970	427.16898	595.46716	171.71027	429.52875	568.54321	
20	0.190	-274.11081	28.38884	-122.47403	201.95345	40.25497	-226.13004	-130.93254	36.68340	381.58182	148.92474	190.17500	338.27716	-64.47115	597.10559	-330.85385	-135.21002	339.97070	-271.01468	18.56609	345.62506	-300.52234	26.04665	426.84409	594.77692	171.53815	429.31265	567.91351	
21	0.200	-273.78677	28.46461	-123.21987	202.76120	41.07956	-227.10088	-130.63155	36.68393	381.06650	149.46289	189.90323	337.79666	-64.47953	597.37628	-331.18149	-134.81618	340.02164	-271.55121	18.59085	346.19012	-301.45425	25.90752	426.18454	593.83832	171.53268	429.20358	567.56061	
22	0.210	-273.23264	28.22732	-124.05453	204.01949	42.40437	-227.64598	-130.74059	36.58196	380.30295	150.50136	189.95474	337.34399	-64.62258	597.71057	-331.62521	-133.86101	339.53433	-271.47012	18.93588	346.57648	-302.05090	25.79584	425.89514	593.29956	171.44005	429.24597	567.10907	
23	0.220	-272.55035	28.29242	-125.09233	204.62489	44.02817	-228.75832	-130.87282	36.74624	379.68839	151.55872	190.19154	336.75635	-64.60532	597.94348	-332.15353	-133.50543	339.60742	-272.22009	19.24977	346.99539	-302.83987	25.35589	425.99710	592.80542	171.39879	428.98386	566.40234	
24	0.230	-271.78189	28.28065	-125.48479	205.68015	45.15193	-229.35945	-130.20178	36.79124	379.14557	152.73253	190.45393	336.01184	-64.48026	598.06360	-332.69379	-133.19305	339.68930	-272.73389	19.47232	347.40244	-303.56741	25.43319	425.54941	592.42120	171.23228	428.81183	565.84808	
